<?xml version="1.0" standalone="no"?>
<!DOCTYPE svg PUBLIC "-//W3C//DTD SVG 20010904//EN"
 "http://www.w3.org/TR/2001/REC-SVG-20010904/DTD/svg10.dtd">
<svg version="1.0" xmlns="http://www.w3.org/2000/svg"
 width="1536.000000pt" height="1024.000000pt" viewBox="0 0 1536.000000 1024.000000"
 preserveAspectRatio="xMidYMid meet">

<g transform="translate(0.000000,1024.000000) scale(0.100000,-0.100000)"
fill="#000000" stroke="none">
<path d="M0 5120 l0 -5120 7680 0 7680 0 0 5120 0 5120 -7680 0 -7680 0 0
-5120z m5299 1325 c2 -3 -37 -5 -88 -5 -77 0 -92 -3 -88 -14 6 -15 -16 -40
-26 -30 -3 3 -14 1 -24 -5 -17 -10 -17 -10 0 -11 10 0 16 -4 12 -9 -3 -5 -1
-13 5 -16 8 -5 7 -11 -1 -21 -8 -10 -8 -14 -1 -14 8 0 8 -8 3 -22 -6 -16 -3
-31 8 -48 15 -23 14 -24 -1 -12 -15 12 -16 11 -13 -11 3 -15 -3 -34 -15 -50
l-20 -25 22 6 c18 4 20 2 15 -18 -6 -23 -6 -23 75 -17 44 4 77 3 73 -1 -3 -4
-271 -9 -593 -12 -644 -6 -648 -7 -804 -71 -241 -99 -439 -333 -493 -583 -9
-39 -14 -50 -14 -31 -1 44 51 184 100 270 23 41 72 107 108 146 36 39 66 78
67 86 3 19 14 30 14 14 0 -9 3 -9 14 1 7 7 11 19 8 27 -4 11 -1 12 14 3 14 -8
22 -6 36 10 10 12 18 18 18 14 0 -4 9 -2 20 4 11 6 18 15 15 20 -3 6 1 7 9 4
9 -3 16 -2 16 4 0 15 -30 8 -41 -9 -5 -8 -9 -10 -9 -6 0 5 -12 -1 -26 -12 -15
-11 -31 -18 -36 -14 -6 3 -4 9 6 15 22 12 20 31 -3 23 -20 -6 -36 18 -25 37 4
6 -1 8 -15 3 -17 -5 -21 -2 -21 13 0 11 6 22 13 25 6 3 3 5 -9 4 -16 -1 -20
-6 -16 -20 3 -14 1 -18 -9 -15 -8 2 -15 14 -17 26 -2 12 -9 22 -17 22 -7 0
-15 7 -19 15 -3 8 -10 15 -16 15 -6 0 -9 -4 -5 -9 3 -5 0 -13 -6 -17 -8 -4 -9
-3 -5 5 4 6 0 14 -8 17 -9 3 -16 10 -16 16 0 5 5 6 10 3 6 -3 10 -1 10 5 0 6
5 8 12 4 6 -4 8 -3 5 4 -9 13 -30 10 -51 -7 -14 -12 -16 -12 -10 3 3 9 9 16
13 17 3 0 15 2 26 4 22 4 48 -13 39 -26 -7 -11 7 -11 25 0 11 7 9 10 -8 16
-12 4 -21 15 -21 26 0 11 -4 17 -10 14 -5 -3 -10 0 -10 7 -1 8 -7 5 -16 -7 -8
-11 -16 -18 -18 -15 -1 3 -16 -7 -34 -21 -17 -15 -28 -30 -24 -34 4 -5 2 -5
-4 -2 -14 8 -67 -50 -59 -63 3 -5 0 -7 -7 -5 -15 6 -77 -61 -131 -142 -82
-120 -131 -229 -173 -383 -12 -47 -23 -77 -23 -67 -2 37 52 203 94 293 174
373 534 631 925 664 105 8 1259 4 1269 -5z m31 -269 c0 -2 -12 -11 -27 -20
l-28 -17 24 20 c23 21 31 25 31 17z m-1712 -161 c-2 -26 -12 -32 -23 -15 -3 6
-1 10 4 10 6 0 11 7 11 15 0 8 2 15 5 15 3 0 4 -11 3 -25z m7306 10 c43 -7 83
-18 89 -24 6 -6 7 -49 2 -113 l-7 -103 -86 3 c-56 1 -96 -2 -112 -10 -36 -19
-60 -74 -60 -135 l0 -53 125 0 125 0 0 -130 0 -130 -125 0 -125 0 0 -455 0
-455 -155 0 -155 0 0 456 0 456 -85 -7 -85 -7 0 137 0 136 85 -2 85 -2 5 101
c7 155 49 244 142 299 88 51 195 64 337 38z m-4014 -25 c249 -71 415 -250 455
-492 l6 -38 -166 0 c-152 0 -165 1 -165 18 0 29 -52 104 -104 149 -75 66 -140
87 -271 87 -152 1 -214 -22 -308 -115 -133 -132 -185 -329 -142 -534 32 -150
135 -291 256 -348 210 -99 469 -21 561 167 l22 46 159 0 159 0 -7 -37 c-3 -21
-19 -68 -34 -104 -75 -179 -207 -300 -404 -372 -72 -26 -99 -30 -223 -35 -169
-5 -256 10 -379 67 -249 117 -402 343 -435 642 -50 457 224 853 639 919 92 15
295 4 381 -20z m-1931 -254 c-4 -4 -279 -16 -369 -17 -41 0 -50 -2 -35 -9 18
-8 16 -9 -10 -11 -16 -1 -36 -3 -43 -3 -7 -1 -17 -7 -21 -15 -5 -7 -14 -10
-20 -7 -6 4 -11 0 -11 -9 0 -9 -4 -14 -9 -10 -5 3 -12 1 -16 -5 -4 -6 -10 -8
-15 -5 -5 3 -17 -2 -27 -12 -11 -11 -31 -18 -51 -17 -17 1 -32 -3 -32 -7 0 -5
-3 -8 -7 -8 -5 1 -17 1 -28 0 -15 -1 -17 -3 -7 -10 11 -7 10 -10 -3 -15 -9 -3
-25 -6 -36 -6 -10 0 -19 -5 -19 -11 0 -8 -4 -8 -14 0 -11 9 -18 6 -36 -16 -17
-22 -23 -25 -30 -13 -8 12 -10 10 -10 -7 0 -13 -5 -23 -11 -23 -5 0 -8 4 -5 8
3 5 -2 9 -10 9 -8 0 -13 -6 -10 -14 4 -10 -1 -12 -21 -7 -16 4 -24 3 -20 -3 3
-5 0 -10 -8 -10 -8 0 -12 4 -9 9 3 4 0 8 -5 8 -6 0 -11 -4 -11 -10 0 -5 -7
-10 -16 -10 -8 0 -12 5 -8 11 4 8 0 8 -15 0 -11 -7 -21 -14 -21 -17 0 -3 4 -2
10 1 6 3 7 -1 3 -10 -3 -9 -9 -13 -12 -8 -8 10 -34 16 -28 6 2 -5 1 -17 -4
-28 l-8 -20 -1 20 c-1 19 -1 19 -11 2 -6 -9 -15 -14 -21 -11 -7 4 -8 2 -4 -4
4 -7 3 -12 -1 -12 -5 0 -9 -9 -9 -20 0 -26 5 -25 15 2 5 13 10 17 14 11 10
-17 -21 -43 -41 -36 -14 6 -15 4 -4 -9 9 -12 10 -18 2 -23 -7 -4 -18 2 -26 14
-8 12 -21 21 -27 21 -8 0 -7 -4 2 -9 8 -5 16 -19 18 -30 2 -15 -3 -21 -17 -21
-14 0 -20 -7 -20 -22 0 -18 -2 -20 -9 -9 -13 20 -61 22 -53 2 3 -9 1 -12 -6
-7 -7 4 -12 26 -12 48 0 23 -2 39 -5 36 -12 -12 -6 -176 8 -228 19 -69 15 -77
-7 -13 -89 256 67 546 327 609 37 9 178 13 501 13 247 1 447 -1 445 -3z m48
-2 c-3 -3 -12 -4 -19 -1 -8 3 -5 6 6 6 11 1 17 -2 13 -5z m4138 -173 c58 -29
146 -108 157 -141 3 -10 23 5 62 48 40 43 79 72 125 95 64 31 69 32 196 32
111 0 138 -4 185 -22 79 -32 153 -101 189 -176 55 -116 61 -176 61 -602 l0
-386 -147 3 -148 3 -2 360 c-3 380 -6 413 -50 477 -72 106 -268 109 -347 5
-58 -76 -60 -91 -63 -482 l-3 -360 -145 -3 -145 -3 0 345 c0 206 -4 365 -11
395 -13 64 -59 135 -101 157 -48 25 -115 34 -173 22 -40 -8 -60 -20 -96 -57
-75 -77 -79 -105 -79 -514 l0 -347 -145 0 -145 0 0 585 0 585 140 0 140 0 0
-76 0 -76 28 34 c42 51 73 76 128 103 102 51 281 49 389 -4z m-961 33 c14 -5
16 -28 16 -148 l0 -142 -97 0 c-88 1 -104 -2 -155 -27 -72 -36 -113 -84 -138
-166 -18 -57 -20 -93 -20 -382 l0 -319 -150 0 -150 0 2 583 3 582 143 3 142 3
1 -88 c0 -72 2 -85 12 -69 46 75 123 134 212 162 42 13 152 18 179 8z m3242
-159 c30 -77 98 -255 151 -395 52 -140 99 -259 103 -263 4 -4 46 99 94 230 48
131 115 313 149 406 l62 167 149 0 c114 0 147 -3 143 -12 -133 -343 -492
-1259 -519 -1323 -56 -137 -146 -237 -246 -276 -61 -23 -193 -31 -265 -16
l-38 8 3 115 3 115 87 2 c120 3 154 29 202 157 l24 65 -207 515 c-114 283
-219 543 -233 577 -15 34 -23 64 -20 68 3 3 73 4 155 3 l149 -3 54 -140z
m-7431 17 c-3 -3 -11 0 -18 7 -9 10 -8 11 6 5 10 -3 15 -9 12 -12z m-1011 -66
c-4 -37 -9 -64 -12 -62 -2 3 -1 35 3 71 4 37 9 65 11 62 3 -2 2 -34 -2 -71z
m1141 37 c-11 -2 -31 -6 -44 -9 -14 -3 -41 -22 -60 -42 -34 -36 -35 -37 -16
-6 21 37 67 63 110 62 19 0 22 -2 10 -5z m-818 -95 c-2 -13 -4 -5 -4 17 -1 22
1 32 4 23 2 -10 2 -28 0 -40z m670 -75 c-3 -10 -5 -2 -5 17 0 19 2 27 5 18 2
-10 2 -26 0 -35z m-1000 -95 c-2 -13 -4 -3 -4 22 0 25 2 35 4 23 2 -13 2 -33
0 -45z m10 -80 c-3 -8 -6 -5 -6 6 -1 11 2 17 5 13 3 -3 4 -12 1 -19z m10 -50
c-3 -8 -6 -5 -6 6 -1 11 2 17 5 13 3 -3 4 -12 1 -19z"/>
<path d="M3518 6243 c7 -3 16 -2 19 1 4 3 -2 6 -13 5 -11 0 -14 -3 -6 -6z"/>
<path d="M5050 6130 c0 -5 5 -10 10 -10 6 0 10 5 10 10 0 6 -4 10 -10 10 -5 0
-10 -4 -10 -10z"/>
<path d="M3657 6046 c-4 -10 -1 -13 8 -9 8 3 12 9 9 14 -7 12 -11 11 -17 -5z"/>
<path d="M3970 5690 c-9 -6 -10 -10 -3 -10 6 0 15 5 18 10 8 12 4 12 -15 0z"/>
<path d="M3715 5399 c-4 -6 -5 -12 -2 -15 2 -3 7 2 10 11 7 17 1 20 -8 4z"/>
</g>
</svg>
